<svg xmlns="http://www.w3.org/2000/svg" viewBox="0 0 1000 600" width="1000" height="600" font-family="'Fira Sans', sans-serif">
  <rect width="1000" height="600" fill="#0f172a"/>
  <g transform="translate(50, 40)">
    <rect width="900" height="140" rx="12" fill="#1e293b" stroke="#334155"/>
    <text x="20" y="28" fill="#94a3b8" font-size="12" font-family="'Fira Code', monospace">LAYER 1 — CLIENT</text>
    <text x="20" y="54" fill="#f8fafc" font-size="20" font-weight="600">Frontend (Next.js 15 · React 19)</text>
    <g font-size="12" font-family="'Fira Code', monospace">
      <rect x="20" y="72" width="140" height="32" rx="16" fill="#0f172a" stroke="#334155"/>
      <text x="90" y="92" fill="#f8fafc" text-anchor="middle">Next.js Router</text>
      <rect x="170" y="72" width="130" height="32" rx="16" fill="#0f172a" stroke="#334155"/>
      <text x="235" y="92" fill="#f8fafc" text-anchor="middle">React Flow</text>
      <rect x="310" y="72" width="120" height="32" rx="16" fill="#0f172a" stroke="#334155"/>
      <text x="370" y="92" fill="#f8fafc" text-anchor="middle">Monaco</text>
      <rect x="440" y="72" width="130" height="32" rx="16" fill="#0f172a" stroke="#334155"/>
      <text x="505" y="92" fill="#f8fafc" text-anchor="middle">Tailwind</text>
      <rect x="580" y="72" width="110" height="32" rx="16" fill="#0f172a" stroke="#334155"/>
      <text x="635" y="92" fill="#f8fafc" text-anchor="middle">NextAuth</text>
      <rect x="700" y="72" width="170" height="32" rx="16" fill="#0f172a" stroke="#22c55e"/>
      <text x="785" y="92" fill="#22c55e" text-anchor="middle">Input Visualizer</text>
    </g>
  </g>
  <g stroke="#22c55e" stroke-width="2" fill="none">
    <path d="M500 190 L500 215"/>
    <path d="M495 210 L500 218 L505 210"/>
  </g>
  <g transform="translate(50, 225)">
    <rect width="900" height="120" rx="12" fill="#1e293b" stroke="#334155"/>
    <text x="20" y="28" fill="#94a3b8" font-size="12" font-family="'Fira Code', monospace">LAYER 2 — API</text>
    <text x="20" y="54" fill="#f8fafc" font-size="20" font-weight="600">Type-safe API (tRPC v11)</text>
    <g font-size="12" font-family="'Fira Code', monospace">
      <rect x="20" y="72" width="120" height="32" rx="16" fill="#0f172a" stroke="#22c55e"/>
      <text x="80" y="92" fill="#22c55e" text-anchor="middle">tRPC routers</text>
      <rect x="150" y="72" width="100" height="32" rx="16" fill="#0f172a" stroke="#334155"/>
      <text x="200" y="92" fill="#f8fafc" text-anchor="middle">Prisma</text>
      <rect x="260" y="72" width="140" height="32" rx="16" fill="#0f172a" stroke="#334155"/>
      <text x="330" y="92" fill="#f8fafc" text-anchor="middle">Gemini API</text>
      <rect x="410" y="72" width="130" height="32" rx="16" fill="#0f172a" stroke="#334155"/>
      <text x="475" y="92" fill="#f8fafc" text-anchor="middle">OAuth</text>
    </g>
  </g>
  <g stroke="#22c55e" stroke-width="2" fill="none">
    <path d="M500 355 L500 380"/>
    <path d="M495 375 L500 383 L505 375"/>
  </g>
  <g transform="translate(50, 390)">
    <rect width="900" height="180" rx="12" fill="#1e293b" stroke="#334155"/>
    <text x="20" y="28" fill="#94a3b8" font-size="12" font-family="'Fira Code', monospace">LAYER 3 — INFRASTRUCTURE</text>
    <text x="20" y="54" fill="#f8fafc" font-size="20" font-weight="600">Data + Execution</text>
    <g font-size="12" font-family="'Fira Code', monospace">
      <rect x="20" y="72" width="140" height="32" rx="16" fill="#0f172a" stroke="#334155"/>
      <text x="90" y="92" fill="#f8fafc" text-anchor="middle">PostgreSQL 16</text>
      <rect x="170" y="72" width="100" height="32" rx="16" fill="#0f172a" stroke="#334155"/>
      <text x="220" y="92" fill="#f8fafc" text-anchor="middle">Redis 7</text>
      <rect x="280" y="72" width="100" height="32" rx="16" fill="#0f172a" stroke="#334155"/>
      <text x="330" y="92" fill="#f8fafc" text-anchor="middle">BullMQ</text>
      <rect x="400" y="72" width="120" height="32" rx="16" fill="#0f172a" stroke="#22c55e"/>
      <text x="460" y="92" fill="#22c55e" text-anchor="middle">Executor</text>
      <path d="M520 88 L560 88" stroke="#22c55e" stroke-width="1.5" fill="none"/>
      <rect x="560" y="72" width="100" height="32" rx="16" fill="#0f172a" stroke="#22c55e"/>
      <text x="610" y="92" fill="#22c55e" text-anchor="middle">Docker</text>
      <rect x="680" y="72" width="50" height="32" rx="8" fill="#0f172a" stroke="#334155"/>
      <text x="705" y="92" fill="#f8fafc" text-anchor="middle">Py</text>
      <rect x="740" y="72" width="50" height="32" rx="8" fill="#0f172a" stroke="#334155"/>
      <text x="765" y="92" fill="#f8fafc" text-anchor="middle">JS</text>
      <rect x="680" y="115" width="50" height="32" rx="8" fill="#0f172a" stroke="#334155"/>
      <text x="705" y="135" fill="#f8fafc" text-anchor="middle">C++</text>
      <rect x="740" y="115" width="50" height="32" rx="8" fill="#0f172a" stroke="#334155"/>
      <text x="765" y="135" fill="#f8fafc" text-anchor="middle">C</text>
    </g>
  </g>
</svg>
