<svg xmlns="http://www.w3.org/2000/svg" viewBox="0 0 800 500" width="800" height="500" font-family="'Fira Sans', sans-serif">
  <rect width="800" height="500" fill="#0f172a"/>
  <g transform="translate(40, 60)">
    <text x="0" y="-20" fill="#f8fafc" font-family="'Fira Code', monospace" font-size="14" font-weight="700">SKILL TREE</text>
    <rect x="170" y="30" width="130" height="44" rx="8" fill="#064e3b" stroke="#22c55e"/>
    <text x="235" y="54" fill="#22c55e" font-family="'Fira Code', monospace" font-size="13" font-weight="600" text-anchor="middle">Array</text>
    <text x="235" y="68" fill="#94a3b8" font-size="9" text-anchor="middle">10/10 · 100%</text>
    <path d="M210 74 L120 130" stroke="#334155" stroke-width="1.5" fill="none"/>
    <path d="M260 74 L340 130" stroke="#334155" stroke-width="1.5" fill="none"/>
    <rect x="60" y="130" width="130" height="44" rx="8" fill="#451a03" stroke="#f59e0b"/>
    <text x="125" y="154" fill="#f59e0b" font-family="'Fira Code', monospace" font-size="13" font-weight="600" text-anchor="middle">Two Pointer</text>
    <text x="125" y="168" fill="#94a3b8" font-size="9" text-anchor="middle">3/5 · 60%</text>
    <rect x="280" y="130" width="130" height="44" rx="8" fill="#064e3b" stroke="#22c55e"/>
    <text x="345" y="154" fill="#22c55e" font-family="'Fira Code', monospace" font-size="13" font-weight="600" text-anchor="middle">Stack</text>
    <text x="345" y="168" fill="#94a3b8" font-size="9" text-anchor="middle">4/4 · 100%</text>
    <path d="M125 174 L90 230" stroke="#334155" stroke-width="1.5" fill="none"/>
    <path d="M345 174 L400 230" stroke="#334155" stroke-width="1.5" fill="none"/>
    <rect x="30" y="230" width="140" height="44" rx="8" fill="#0f172a" stroke="#334155"/>
    <text x="100" y="254" fill="#94a3b8" font-family="'Fira Code', monospace" font-size="12" font-weight="600" text-anchor="middle">Sliding Window</text>
    <text x="100" y="268" fill="#64748b" font-size="9" text-anchor="middle">0/3 · 0%</text>
    <rect x="340" y="230" width="150" height="44" rx="8" fill="#0f172a" stroke="#334155"/>
    <text x="415" y="254" fill="#94a3b8" font-family="'Fira Code', monospace" font-size="12" font-weight="600" text-anchor="middle">Monotonic Stack</text>
    <text x="415" y="268" fill="#64748b" font-size="9" text-anchor="middle">0/2 · 0%</text>
    <rect x="160" y="330" width="180" height="44" rx="8" fill="#0f172a" stroke="#1e293b" stroke-dasharray="4,3"/>
    <text x="250" y="354" fill="#475569" font-family="'Fira Code', monospace" font-size="12" font-weight="600" text-anchor="middle">Dynamic Programming</text>
    <text x="250" y="368" fill="#475569" font-size="9" text-anchor="middle">locked</text>
    <path d="M235 230 L220 330" stroke="#1e293b" stroke-width="1.5" stroke-dasharray="3,3" fill="none"/>
  </g>
  <g transform="translate(540, 40)">
    <rect width="220" height="420" rx="12" fill="#1e293b" stroke="#334155"/>
    <text x="20" y="30" fill="#f8fafc" font-family="'Fira Code', monospace" font-size="14" font-weight="700">Two Pointer</text>
    <text x="20" y="50" fill="#94a3b8" font-size="11">Traverse from both ends</text>
    <text x="20" y="90" fill="#94a3b8" font-family="'Fira Code', monospace" font-size="10">MASTERY</text>
    <rect x="20" y="96" width="180" height="6" rx="3" fill="#0f172a"/>
    <rect x="20" y="96" width="108" height="6" rx="3" fill="#f59e0b"/>
    <text x="200" y="104" fill="#f8fafc" font-family="'Fira Code', monospace" font-size="11" text-anchor="end">60%</text>
    <text x="20" y="140" fill="#94a3b8" font-family="'Fira Code', monospace" font-size="10">PROBLEMS</text>
    <g transform="translate(20, 150)" font-size="11">
      <circle cx="8" cy="18" r="5" fill="#22c55e"/>
      <path d="M5 18 L7 20 L11 15" stroke="#0f172a" stroke-width="1.5" fill="none"/>
      <text x="22" y="22" fill="#f8fafc">Two Sum</text>
      <text x="180" y="22" fill="#22c55e" font-family="'Fira Code', monospace" text-anchor="end">Easy</text>
      <circle cx="8" cy="46" r="5" fill="#22c55e"/>
      <path d="M5 46 L7 48 L11 43" stroke="#0f172a" stroke-width="1.5" fill="none"/>
      <text x="22" y="50" fill="#f8fafc">3Sum</text>
      <text x="180" y="50" fill="#f59e0b" font-family="'Fira Code', monospace" text-anchor="end">Medium</text>
      <circle cx="8" cy="74" r="5" fill="#1e293b" stroke="#475569"/>
      <text x="22" y="78" fill="#94a3b8">Container Water</text>
      <text x="180" y="78" fill="#f59e0b" font-family="'Fira Code', monospace" text-anchor="end">Medium</text>
    </g>
    <text x="20" y="280" fill="#94a3b8" font-family="'Fira Code', monospace" font-size="10">NEXT STEP</text>
    <rect x="20" y="292" width="180" height="28" rx="14" fill="#064e3b" stroke="#22c55e"/>
    <text x="110" y="310" fill="#22c55e" font-family="'Fira Code', monospace" font-size="11" text-anchor="middle">Practice Container Water</text>
  </g>
</svg>
